<?xml version="1.0" encoding="UTF-8"?>
<svg version="1.1" viewBox="0 0 867 1007" width="867" height="1007" xmlns="http://www.w3.org/2000/svg">
<path transform="translate(0)" d="m0 0h867v1007h-867z" fill="#AFAFAF"/>
<path transform="translate(398,196)" d="m0 0 8 3 1 1 15 2 3 2 12 2v2h-10l3 3v2l8-1v-3h21l1 1 12 2v2l2 1h7v2h16l-1-1-14-1v-2h13l7 4 7 3 8 7 2 4-6-3-5-5-4-1-6-2h-6l9 6v2l-5-2-10-6-8-1 5 3 1 8 4 1 3 4-1-4h3l1 4 5 1 4-1 5 2h10l-1-1-1-3 14 1 7 3v2l3 1 5 5v2l3 1-1 2-6-5-6-2v-2h-5l4 6-1 3-7-5-1-5-1-3h-4v3l5 1-1 2-9-2 1 3 2 1 1 2 3 1 3 3 6 3-1 2-4-2v4l4 1 2 5 6 7h-3v4l6 2v2l-4-1-2 4-3 2h8 3l3-4h4l1-4h2l1-2v6l-3 2-2 9 5-1-1 2h-2l1 4-6 5-3 2 2 1v-2l10-1-1 3-3-1-2 4h-2v3l-8 2 5 1 8-4h3v-3h2v3h2l2 4-1 7 5 1 1 3-2 8-2-2-1 6-2 1 6-1 2 7 1 4-3 5-5 2h-4v-4l4-2v-7l-3-1-1 2h-2v2h2l-1 4h-6v2l3 1 2 2 2 3 1 5 6-1 3-5 3-3 2-4 1 1v-10l-1-5-4-2v-3l4 2 3 3 1 5v16h2v-5l2-1v17h-1v-5h-2v-3h-3v6h-4-2l-1 3h5l-3 9-3 1-1 6-2 1-3 15 1 1 3-6 1 4h3l-1 2h-4l-1 7-3 5-3 3-1 3h-2l-1-4h-2l-4-5-10-2-7-23-3-10-3-3-4-1 3-2-3-6-1-7-5-4-6-1v-5l-3 1-2-4 6-6v2l5 2-2-5v-3l-4-1-2-1 1 6h-9v3l-3-1-1-4-4-2-3-1-1-4 7 1v-3l-4 1-2-1v-4h-2v-6l-7-1-5-3-1 4 4 2v2h-8l-2-4h-4l6 6v2l5 2 4 3v2l4 2 3 2v2h2l1 5h-4l-2-3-9-1-10-1h-5v2l5 2 9 2v1h8l4 1v2l-5 2-2-1v2h-5l-1-3h-8v-2l-7 3-4 5-2 1v8h2v8l5 3 5-1h4l5-1 2 4h30l10 4 12 10 6 10 5 8 1 5 10 2 4 4v2h2l1 8h-2l-3 9-3 7 7-3h7l5 4 1 2v14l-4 18-3 12h-1l-1-10-2-7-2-11-4-1v14l5 7 2 1-1 16-2 4-3 2h-3v8h2l2-5 4-1v13l2 2v6l-4-4-5 1-2-2v5l2 2h7l2-1-1 4-2 2h-12l-1 11-7 24-9 19-7 13-1 25 8 10v3h2l7 12 11 13v2l4 2 13 2 15 4 18 3 12 4 10 4 8 3 15 3 6 2 18 4 16 5 15 6 1 1 12 2 16 8 7 3 28 14 13 9 9 9v3l8-1 7 6 4 5 3 8 2 19 6 17 5 11 7 19 4 12 4 16 3 11 2 9 2 31 7 10 5 10 6 18 5 20 6 18 2 10h-865l2-6v-7l10-25 6-17 1-6 2-9 9-22 7-20 5-16 5-12 8-21 3-9 3-7 7-21 7-16 6-16 5-9 1 3 4-2 4-4 4-2h4v-2l8-3 10-2v-2l5-2 17-9 8-3 10-5 16-5 5-2 7-2 14-3 6-2 7-1 12-9 11-6 10-3 9-6h3v-2l26-14 12-5 5-5 9-14 9-16h2l-1-14v-11h-2l-1-11-4-8-3-3-2-3-2-9h-2l-2-7-4-10-1-6h-2l-2-12h-3v2l-5 2h-9l-4-4v-12l-3-11-4-8-4-17-4-8-3-13v-12l4-5 4-2h7l-6-12-5-15v-3l-4-1-4-11-2-4v-5l-3-1-1-3v-32l-1-9-1-1v-13l2-11h-2v-7h-3l1 16-2-4-1-1v-12l3-11 5-8 7-16 1-10h2l2-6 5-5h3v-2l7-4 2-5h2v-5l3-1v-2l7-3h3v-6l3-3 5-2 1-3 10-5 5-4 3-1h9l2-5-3-1v-2h8v1h6l-2-2 16-2 7-5 1-2 12-3 10-4 9 1 5 1-1-5-2-2z" fill="#1D1D1D"/>
<path transform="translate(398,196)" d="m0 0 8 3 1 1 15 2 3 2 12 2v2h-10l3 3v2l8-1v-3h21l1 1 12 2v2l2 1h7v2h16l-1-1-14-1v-2h13l7 4 7 3 8 7 2 4-6-3-5-5-4-1-6-2h-6l9 6v2l-5-2-10-6-8-1 5 3 1 8 4 1 3 4-1-4h3l1 4 5 1 4-1 5 2h10l-1-1-1-3 14 1 7 3v2l3 1 5 5v2l3 1-1 2-6-5-6-2v-2h-5l4 6-1 3-7-5-1-5-1-3h-4v3l5 1-1 2-9-2 1 3 2 1 1 2 3 1 3 3 6 3-1 2-4-2v4l4 1 2 5 6 7h-3v4l6 2v2l-4-1-2 4-3 2h8 3l3-4h4l1-4h2l1-2v6l-3 2-2 9 5-1-1 2h-2l1 4-6 5-3 2 2 1v-2l10-1-1 3-3-1-2 4h-2v3l-8 2 5 1 8-4h3v-3h2v3h2l2 4-1 7 5 1 1 3-2 8-2-2-1 6-2 1 6-1 2 7 1 4-3 5-5 2h-4v-4l4-2v-7l-3-1-1 2h-2v2h2l-1 4h-6v2l3 1 2 2 2 3 1 5 6-1 3-5 3-3 2-4 1 1v-10l-1-5-4-2v-3l4 2 3 3 1 5v16h2v-5l2-1v17h-1v-5h-2v-3h-3v6h-4-2l-1 3h5l-3 9-3 1-1 6-2 1-3 15 1 1 3-6 1 4h3l-1 2h-4l-1 7-3 5-3 3-1 3h-2l-1-4h-2l-4-5-10-2-7-23-3-10-3-3-4-1 3-2-3-6-1-7-5-4-6-1v-5l-3 1-2-4 6-6v2l5 2-2-5v-3l-4-1-2-1 1 6h-9v3l-3-1-1-4-4-2-3-1-1-4 7 1v-3l-4 1-2-1v-4h-2v-6l-7-1-5-3-1 4 4 2v2h-8l-2-4h-4l6 6v2l5 2 4 3v2l4 2 3 2v2h2l1 5h-4l-2-3-9-1-10-1h-5v2l5 2 9 2v1h8l4 1v2l-5 2-2-1v2h-5l-1-3h-8v-2l-7 3-4 5-2 1v8h2v8l5 3 5-1h4l5-1 2 4h30l10 4 12 10 6 10 5 8 1 5 10 2 4 4v2h2l1 8h-2l-3 9-3 7 7-3h7l5 4 1 2v14l-4 18-3 12h-1l-1-10-2-7-2-11-4-1v14l5 7 2 1-1 16-2 4-3 2h-3v8h2l2-5 4-1v13l2 2v6l-4-4-5 1-2-2v5l2 2h7l2-1-1 4-2 2h-12l-1 11-7 24-9 19-7 13-1 25 2 3h-2l2 7 5 15v15l-2 16-2 10-2 5-3 24-4 21-1 5h-2l-1 16-3 18h-2v7l-4-2-8-8-8-7-12-9-3-1v-2l-7-2-2-2-10-2h-7v2h6l-1 3-7 1-20-1-5-2 1-3-6 1-15 8-12 11-6 8-3 5-4 11v5l4-1 3 1v-2l4 2 7 7 4 6 3 2 3 5 4 2 8 9 3 5v9l-5 15-6 13-6 18-2 17-1 50v29l-2 2-4-18-6-36-5-28-1-7-1-1-3-18-3-12-3-14-3-16-1-1-3-15-5-18-1-6 5 2-1-3-2-1v-3h-2v-3h-2l-4-15-5-30-5-31-7-27-3-17v-21l3-10-1-17v-11h-2l-1-11-4-8-3-3-2-3-2-9h-2l-2-7-4-10-1-6h-2l-2-12h-3v2l-5 2h-9l-4-4v-12l-3-11-4-8-4-17-4-8-3-13v-12l4-5 4-2h7l-6-12-5-15v-3l-4-1-4-11-2-4v-5l-3-1-1-3v-32l-1-9-1-1v-13l2-11h-2v-7h-3l1 16-2-4-1-1v-12l3-11 5-8 7-16 1-10h2l2-6 5-5h3v-2l7-4 2-5h2v-5l3-1v-2l7-3h3v-6l3-3 5-2 1-3 10-5 5-4 3-1h9l2-5-3-1v-2h8v1h6l-2-2 16-2 7-5 1-2 12-3 10-4 9 1 5 1-1-5-2-2zm-75 444 2 1-2 1z" fill="#636363"/>
<path transform="translate(398,196)" d="m0 0 8 3 1 1 15 2 3 2 12 2v2h-10l3 3v2l8-1v-3h21l1 1 12 2v2l2 1h7v2h16l-1-1-14-1v-2h13l7 4 7 3 8 7 2 4-6-3-5-5-4-1-6-2h-6l9 6v2l-5-2-10-6-8-1 5 3 1 8 4 1 3 4-1-4h3l1 4 5 1 4-1 5 2h10l-1-1-1-3 14 1 7 3v2l3 1 5 5v2l3 1-1 2-6-5-6-2v-2h-5l4 6-1 3-7-5-1-5-1-3h-4v3l5 1-1 2-9-2 1 3 2 1 1 2 3 1 3 3 6 3-1 2-4-2v4l4 1 2 5 6 7h-3v4l6 2v2l-4-1-2 4-3 2h8 3l3-4h4l1-4h2l1-2v6l-3 2-2 9 5-1-1 2h-2l1 4-6 5-3 2 2 1v-2l10-1-1 3-3-1-2 4h-2v3l-8 2 5 1 8-4h3v-3h2v3h2l2 4-1 7 5 1 1 3-2 8-2-2-1 6-2 1 6-1 2 7 1 4-3 5-5 2h-4v-4l4-2v-7l-3-1-1 2h-2v2h2l-1 4h-6v2l3 1 2 2 2 3 1 5 6-1 3-5 3-3 2-4 1 1v-10l-1-5-4-2v-3l4 2 3 3 1 5v16h2v-5l2-1v17h-1v-5h-2v-3h-3v6h-4-2l-1 3h5l-3 9-3 1-1 6-2 1-3 15 1 1 3-6 1 4h3l-1 2h-4l-1 7-3 5-3 3-1 3h-2l-1-4h-2l-6-9-2-7-6-7 1-3h-2l-3-5v-3l3-1h-3l-1-12-3-15-7-15-4-12-3-1-1-3-5-3-2-2v-3l-3 1-4-3v-2l-5-2-5-3h-7l-2-4h-7l-5-2 2-1v-2h-4l-1 2-3-2-6-1h-6-2l-11 2-4 4-5 2-9 1v2h-10v-2l-16 3v-3l-7 2-9 2-6 2h-4l-1 2-2-1v7l3 5-1 4-2 1v2l-3-1-4-9v-4l-5 4-3 2-2 3h-3l-2 5-4 2-5 6-4 2-4 4-3 7-5 7-4 8v8l-2 3h-2l-2 5-4 5-5 18-4 13h-7l1 1h5l-1 2h-5l-1 5-3 1-1 9-3 5-3 2 1 7 1-7 5-1v6l5-2-1 9-1 4h3v2l-4 1h-8v-2h-2l-7-13-5-15v-3l-4-1-4-11-2-4v-5l-3-1-1-3v-32l-1-9-1-1v-13l2-11h-2v-7h-3l1 16-2-4-1-1v-12l3-11 5-8 7-16 1-10h2l2-6 5-5h3v-2l7-4 2-5h2v-5l3-1v-2l7-3h3v-6l3-3 5-2 1-3 10-5 5-4 3-1h9l2-5-3-1v-2h8v1h6l-2-2 16-2 7-5 1-2 12-3 10-4 9 1 5 1-1-5-2-2z" fill="#1D1D1D"/>
<path transform="translate(448,292)" d="m0 0 1 2 7-1 7 2h2 4l-1 3 11 2 2 3h7l10 6 4 4h3l2 2v3l5 2 3 4 3 3 5 15 5 10 4 21-1 6h3l-1 2-2-1 3 5v3h2l1 5h2l4 6 2 9-10-1-7-23-3-10-3-3-4-1 3-2-3-6-1-7-5-4-6-1v-5l-3 1-2-4 6-6v2l5 2-2-5v-3l-4-1-2-1 1 6h-9v3l-3-1-1-4-4-2-3-1-1-4 7 1v-3l-4 1-2-1v-4h-2v-6l-7-1-5-3-1 4 4 2v2h-8l-2-4h-4l6 6v2l5 2 4 3v2l4 2 3 2v2h2l1 5h-4l-2-3-9-1-10-1h-5v2l5 2 9 2v1h8l4 1v2l-5 2-2-1v2h-5l-1-3h-8v-2l-7 3-4 5-2 1v8h2v8l5 3 5-1h4l5-1 2 4h30l10 4 12 10 6 10 5 8 1 5 10 2 4 4v2h2l1 8h-2l-3 9-2 5h-2v-9l4-5-4-1 1-10h-5l-3-1 1 2v13l4 10-1 9 2 6 2 21v11l-1 9-3 1-1 9-1 2h-2l-2 7-1 4-13 13h-3l1 5 2 5-3 4h-4l1 4-4 6-8 4-2-1v-4h-2l-1-12-3-6 2-1-3-3v-2l-4-1-1-2-4-1-16 1 2 2-7 2-2-5-3-4-5-2v-2h-2l1-4 3-5h5l1-5 6-1 1-7 3-4h-2l-2-9-2-1 1-4-4 1v-2h-2l3 8v12h-2l-5-5-8-1v2l-7 3-3 3-2-1v-2h-3l-1-4h-2v-5l-4-2-2-2-4-10-3-12-1-7 1-7-1-5 1-9 1-5h3v-6l-1-3-8 1-8 3-2-4h3v-2l1-1-4-1-1-4v-3l-1-6 1-3h-2l-1-3-2-1v-4l-11-1-13-5v-2h4l-5-1-2 1h-6l-2 1-9 1-3 3h-3v-2l-11 2-5 1-1 2-2 1-2 5-7 8h-2l-1 5-4 8-2 5-5 1v2h-5l1 3h-2v4h-3l-2-3h-4l-2 4-6 2v-8l3-5 2-1 1-3 5-1h-5v-2h7l1-7 4-14 3-10 6-8 1-2h2l1-9 2-5 3-6 6-9 2-5 5-5h3l2-4h2l2-4 3-1 2-4 4-2 1-3 5-3 3-1 5 13 2 1-1-3 3-1-1-5-2-3v-8h4l8-2 4-2 12-2h2v3l14-4 4 1h-2v2h10v-2l11-3 5-3 2-2 11-2z" fill="#626262"/>
<path transform="translate(512,634)" d="m0 0 4 3 5 15v15l-2 16-2 10-2 5-3 24-4 21-1 5h-2l-1 16-3 18h-2v7l-4-2-8-8-8-7-12-9-3-1v-2l-7-2-2-2-10-2h-7v2h6l-1 3-7 1-20-1-5-2 1-3-6 1-15 8-12 11-6 8-3 5-4 11v5l4-1 3 1v-2l4 2 7 7 4 6 3 2 3 5 4 2 8 9 3 5v9l-5 15-6 13-6 18-2 17-1 50v29l-2 2-4-18-6-36-5-28-1-7-1-1-3-18-3-12-3-14-3-16-1-1-3-15-5-18-1-6 5 2-1-3-2-1v-3h-2v-3h-2l-4-15-5-30-5-31-7-27-3-17v-21l3-8h2l3 15 3 5 4 10 5 5 4 7 7 7 7 8 6 5v2l4 2 10 8 7 6 5 5 13 12 3 1v2l6 2 3 2h16l6-2v-2l7-4 11-9 7-7 5-7 8-7 6-6 1-3 2-1 1-3h2l2-6h2l2-5 1-3h2l2-6 8-17 2-13z" fill="#AEAEAE"/>
<path transform="translate(510,607)" d="m0 0v3h3l1 17 2 3h-2v5h-1l-3 23-4 9-8 17h-2l-1 5-2 3h-2l-1 4-1 2h-2l-1 4h-2l-1 4-12 12h-2l-2 4-9 10-8 7-8 6h-3v2l-6 3h-16l-9-5v-2l-4-1-15-14v-2l-5-2-7-7-11-8v-2l-4-2-9-9-7-8-4-5v-3l-4-2-5-9-3-8-3-9v-7h-2v-13l2 4v-9l-2-12 2-4v2l4 2 5 5 1 5-2 1-2-1 7 8v3l6 2v5l2 4v4l4 1 2 4h3v3h3l2 5 6 1 3 3 11 2 1 3 4 2 11-4h2v-2l7 1 1-5 9 2 6-1v-2l-3-1 10-3h5l1-4 10-6 6-2 15-4h3v-2l8-4 13-10v-4l-1-4h3v3l5-3 5-6 4-5zm-187 33 2 1-2 1z" fill="#636363"/>
<path transform="translate(290,500)" d="m0 0h1l1 10 1 7h2l1 2 3 1 1 6h2l-2 5 4 1 3 8-3 1v5h-2l2 5h2v4 4h-2v2l3 1 3 5 3 1 1 4-2 4 3 1 4 6 4 7h6l4-1-3-9 5-1 3 5v6l-2 2v3l7 1 5-3 2-1 3 1 1 3 2 1 1 4 2 1-1-7 3-1 1-9 8 2 1-15-5-1-2-5v-4-15l7-7 9 1 5-1v-2l7-4h3l4-1 3 1v2l-2 1h3l-1 4h-6l-3 3h-3l-2 4-2 7-2 3h-2v2l6-2 7 1 4-2v-2l10-2h7l5-1 4-1 1 3 8-1 5-2h20l4 2 18 1 1 4-4 1h-13l-9-2h-11l-24 2-25 5 2 5 2 2-5 1-6-1-3 2-11 1 3 8-1 2h2l2 6h4l-1 5-3 1-2-1-1 4-1 2 7-2v2h2v2l2 1-1 4 5 1v-4h2l1-3h3l-1 3h-2v2l6 2 3 6-1 2-3-2v2l5 1 2-6h2l1 4h-2v4h3l-1 8h2v-4h2l2 7 2 1v3l17 2h5l4-4h2v3l5-3 1-2 8 1 1-4h9l7-3 3-2 2 1 1-5 4-2 1-3 4 1 2 2v3l3-3v-3l-5-1-1-3 15-1 1-3h2l-2 5-3 1-2 5-6 6h-3v-3h-3l1 4 2 1-2 4-16 12-5 1v2l-10 3-8 2-9 4-7 4-1 3-13 3 1 3-7 2-8-3v5l-4 1-4-2v2l-14 5-4-4-4-2-7-1-1-3-8-2-2-5h-3l-1-3h-3l-1-4-4-1-3-8v-5l-6-1 1-3-5-5-2-4h3v-4l-5-5-5-3 1 11 1 9-1 4h-1l-2-11v-11h-2l-1-11-4-8-3-3-2-3-2-9h-2l-2-7-4-10-1-6h-2l-2-12h-3v2l-5 2h-7l2-2 7-2 3-2-1-9-2-7v-4l-3-2v-3h3l-2-6z" fill="#1D1D1D"/>
<path transform="translate(420,415)" d="m0 0h18l3 1-1 6-1-2-6 1 1 3v2l1 3h-5l1 6-2 2-9 2v1h12l2 7h1v-6l-2-4 1-4 5 1v-7l5 2-1 4 1 4 4 2-1 3-7-4h-1l1 7 6 12v2h2l3 4v2l4 2 2 4 5 1 10 5 5 1h20l16-7 4-4h2l1-3h2l2-4 6-10 4-9 2-7 3 3 1 7-1 5 2 6 2 21v11l-1 9-3 1-1 9-1 2h-2l-2 7-1 4-13 13h-3l1 5 2 5-3 4h-4l1 4-4 6-8 4-2-1v-4h-2l-1-12-3-6 2-1-3-3v-2l-4-1-1-2-4-1-16 1 2 2-7 2-2-5-3-4-5-2v-2h-2l1-4 3-5h5l1-5 6-1 1-7 3-4h-2l-2-9-2-1 1-4-4 1v-2h-2l3 8v12h-2l-5-5-8-1v2l-7 3-3 3-2-1v-2h-3l-1-4h-2v-5l-4-2-2-2-4-10-3-12-1-7 1-7-1-5 1-9 1-5h3v-6l-1-3-8 1-8 3-2-4 13-4z" fill="#AFAFAF"/>
<path transform="translate(480,789)" d="m0 0h5v2h3v2l4-1h3l2-1 1 3-1 18-2 21-2 27-1 6-2 26-4 46-1 2-2 23-3 27-1 1-1 14-1 2h-8l-2-33-1-2-1-12-1-36-2-22-1-20-1-2-2-18-3-11-4-14 1-5 4-10 7-11 8-11 8-10z" fill="#ADADAD"/>
<path transform="translate(452,301)" d="m0 0 15 1 1 1 10 1 6 5 7 2v2l6 2v2h3v2h2v2h3l2 5 3 1 4 8 2 2 2 9 3 10 2 10 3 6-1 2-3-3-4-1 3-2-3-6-1-7-5-4-6-1v-5l-3 1-2-4 6-6v2l5 2-2-5v-3l-4-1-2-1 1 6h-9v3l-3-1-1-4-4-2-3-1-1-4 7 1v-3l-4 1-2-1v-4h-2v-6l-7-1-5-3-1 4 4 2v2h-8l-2-4h-4l6 6v2l5 2 4 3v2l4 2 3 2v2h2l1 5h-4l-2-3-9-1-10-1h-5v2l5 2 9 2v1h8l4 1v2l-5 2-2-1v2h-5l-1-3h-8v-2l-7 3-4 5-2 1v8h2v8l5 3 5-1h4l5-1 2 4h30l4 2-18 1h-24l-14 1-7 1-5-5-4 2-5-1v2l4 1-1 5-4-1-3 2v2l-5 1-1-2-4 1-6 1v-3l-11-2-1-2-7-1-5-1-4 1-9-2-3 2-25 4h-5l-1-4 5-3 4-4 18-1 1-4 11-1 3-3 7-2v-2l9-2h10l3-3 33-5 1-2-20-1-7 1v-2l5-2 4-2 13-3 3-2h5v-2h-9l-1 2h-5v-4h-5l-1-3h5l1-3 4-2-1-7 5-5 6-4 1-3 8-2z" fill="#818181"/>
<path transform="translate(364,799)" d="m0 0 2 4 4-1 3 1v-2l4 2 7 7 4 6 3 2 3 5 4 2 8 9 3 5v9l-5 15-6 13-6 18-2 17-1 50v29l-2 2-4-18-6-36-5-28-1-7-1-1-3-18-3-12-3-14-3-16-1-1-3-15-5-18-1-6 5 2 1-2 6 5h2z" fill="#AEAEAE"/>
<path transform="translate(370,382)" d="m0 0 6 1-2 2-3-1v2l6 1 7 3 9 1 2 1v4l3 1v3h2l1 9v3l1 4h5l-1 2h-2v2h-3l2 3 4 2v4l2 1-1 3h-2l1 7v8l-3 3v-17h-8l-1-2h-4l-1-2v-9h-3v3l-6 1v5l7 4 1 3-5 1-14 2 3-3 3-1-2-4-5-4h-2l1 5-3 7-13 2-4-6v-6l-5 2-1-4-2-1 1 2v10l4 2v2l-6 1v-2l-2 1v3l-6-4-1-3 2-4h2v-3h-3l-1-5 3-3v-5l7 1-1-4 9-3 1-3h2v-5h-7l-6 1-1-2h-4l1 4h-2l-1 2-5-2v4l-4 4h-3l2 5-3 3-1-2-2 1 1-6 4-6 5-5 10-5 20-4h-8l-15 2v2l-8 3-8 8-4 8-2 6h-10l3-2h5l3-10 4-8h2l2-4 5-5 2-5 8-4 7-1h4v2l5-1 1-3 9-1 2-1h7z" fill="#5D5D5D"/>
<path transform="translate(420,415)" d="m0 0h18l3 1-1 6-1-2-6 1 1 3v2l1 3h-5l1 6-2 2-9 2v1h12l2 7h1v-6l-2-4 1-4 5 1v-7l5 2-1 4 1 4 4 2-1 3-7-4h-1l1 7 6 12v2h2l3 4v2l4 2 2 4 5 1 8 4 1 4h4v2h5l-1 7h6l3-1 2 3v7l-2 9 5 1 2 7 1 2h-10l-2 4h-2v-2l-3-1v-2l-4 1-8 1-4-1-1-6-2 1 1 4-1 5 5 2 1 3h7v1l-6 1 2 2-7 2-2-5-3-4-5-2v-2h-2l1-4 3-5h5l1-5 6-1 1-7 3-4h-2l-2-9-2-1 1-4-4 1v-2h-2l3 8v12h-2l-5-5-8-1v2l-7 3-3 3-2-1v-2h-3l-1-4h-2v-5l-4-2-2-2-4-10-3-12-1-7 1-7-1-5 1-9 1-5h3v-6l-1-3-8 1-8 3-2-4 13-4z" fill="#818181"/>
<path transform="translate(516,392)" d="m0 0 5 2 2 6 2 14 2 8h2l2-3h2v7l-7 5v3l4-4h3v5l-3 2h-3l2 8-1 6-7 11h-2l-2 4-5 4-10 5-8 2h-16l-12-4-10-7-7-8-3-4v-3h-2l-2-9 4 1 2 7 3-3 4-1 5 2h2v2l12 1 4 1 1-1 15-1 1-5 2-2v-5l-2-1v-3l10-3 2 3 3-3h3l1-6 2-4-3-8-1-13-4-1 7 1 2 4h3l-2-9z" fill="#828282"/>
<path transform="translate(520,237)" d="m0 0h4l3 4-1 4 4 2 3 2-2-5-1-3h5v2l7 2 5 4-5-5-5-6 5 1 6 3 8 10 3 7 2 12 5 5 1 5-3-1-3-5-2 2-1-7-2 2 3 9-2 12 2 4v4l7-5-2 5-3 1 2 5h2l5-6 1 3-3 6-1 6 5 11 1 6-6-4 2 4 3 3 1 3v11l-2-1-3 5-3 3-2 4h-6l-3-7-5-4v-2l6-1 1-3h-2v-2h2l1-3 4 2v7l-2 2h-3v4l9-2 2-5-1-4-1-7-3 2-4-1 3-1v-7l2 1 2-9-5-1v-7l-1-4h-2v-3h-2v3l-7 3-5 2-5-1 3-3h6v-3h2l1-4 2-1 2 1 1-2-10 1v2l-3-1 1-2 7-4 1-5v-1h-2v-5l1-5 4-1-1-4-2 1-1 3-4 1-5 5-1-1h-9l6-7 4 1-1-2h-3v-2h-2v-4l2-1-7-7-1-4-3-1v-4l4 1-3-2-5-3v-2l-5-1-2-5-2-2 7 1 4 1 1-1-5-1z" fill="#6B6B6B"/>
<path transform="translate(261,463)" d="m0 0 10 2 2 4 6 3 4 4 4 1v-6h1l3 22-1 20 1 1v5h-3l1 3 3 2 1 9 2 8-1 4-4 3-10 2-4-4v-12l-3-11-4-8-4-17-4-8-1-5-1-19z" fill="#5E5E5E"/>
<path transform="translate(538,496)" d="m0 0h4l-2 16-3 12h-2v3l2 1-4 1-5 5 4 1 1-2h2v9l-3 1 2 7-2 5v2h-2l-2 3v6l-11 3-3-1 2 2 5 2 1 2h-2l-2 4-1 3-6 1h-6l-2 2-5 1v-2h-2v-4h3l-5-15 1-18-2-1-1-6-5-2 2-2 3 1-1-2h-6l-6-4h-5l-1-3 2-1h8l5 2 1 2 3 1 4 5-1 2 1 3 1 2v12h2l2 4 8-4 4-8-2-1 2-2v2l3-1 2-5v-2l-2-1-1-2 1-3 3-1 9-9 2-3h2l1-5 2-6h2v-7z" fill="#808080"/>
<path transform="translate(507,626)" d="m0 0h6l3 4h-2v5h-1l-3 23-3 8h-2l-5 6h-3l-1 4-6 8-2 2-9 5-5 2-3 2-5 2-4 1-1 4-4 4-12-1-1 3-4-1 3-6 1-9 5-1 1-2h4l1-3 6-1 1-3 12-5 3-3h3v-2l5-4 6-2 2-4 5-13 2-2-1-4 3-5-2-1 5-2-1-5 1-3z" fill="#808080"/>
<path transform="translate(393,533)" d="m0 0 4 1 2-1 3 1v2l-2 1h3l-1 4h-6l-3 3h-3l-2 4-2 7-2 3h-2v2l6-2 7 1 4-2v-2l10-2h7l5-1 4-1 1 3 8-1 5-2h20l4 2 18 1 1 4-4 1h-13l-9-2h-11l-24 2-25 5 2 5 2 2-5 1-6-1-3 2-11 1-2-1v-9l-5 1v6h-2l-2-5v-4-15l7-7 9 1 5-1v-2l7-4z" fill="#474747"/>
<path transform="translate(369,402)" d="m0 0 8 1-6 11-5 5h-2l-3-4v-2l-13 4-5 4h-4l1 3 7 1 12-1 2-4h5l-2 3h4l4-7 5-8 2-4 1 4h2l2 4-1 2h2v2h10v5h2l2 4h1l2 8-6 1-1-2h-4l-1-2v-9h-3v3l-6 1v5l7 4 1 3-5 1-14 2 3-3 3-1-2-4-5-4h-2l1 5-3 7-13 2-4-6v-6l-5 2-1-4-2-1 1 2v10l4 2v2l-6 1v-2l-2 1v3l-6-4-1-3 2-4h2v-3h-3l-1-5 3-3v-5l7 1-1-4 9-3 1-2 12-2 2-3h9v-2l-3-1z" fill="#1E1E1E"/>
<path transform="translate(446,471)" d="m0 0 5 2 2 1 1-2 6-1 10 5 1 4h4v2h5l-1 7h6l3-1 2 3v7l-2 9 5 1 2 7 1 2h-10l-2 4h-2v-2l-3-1v-2l-4 1-8 1-4-1-1-6-2 1 1 4-1 5 5 2 1 3h7v1l-6 1 2 2-7 2-2-5-3-4-5-2v-2h-2l1-4 3-5h5l1-5 6-1 1-7 3-4h-2l-2-9-2-1 1-4-4 1v-2h-2l3 8-2 3-5-4-11-2-2-6 2-5z" fill="#818181"/>
<path transform="translate(326,611)" d="m0 0 1 2 4 2 5 5 1 5-2 1-2-1 7 8v3l6 2v5l2 4v4l4 1 2 4h3v3h3l2 5 6 1 3 3 11 2 1 3 4 2 11-4h2v-2l7 1 1-5 9 2 6-1v-2l-3-1 10-3h5l1-4 8-4v3l-4 1-2 4-1 1h-5l-1 6h-7v2h6l1 7-1 4h-13l-6-2-19 2-5-1-4 1-10-5-1-3-3-2v-3l-7 1h-4l-1-3-4-2-1-5-4-1-4-4-8-4v-6-3l-1-1-1 3-1-5h-3l-1 3h-4v-8l2 4v-9l-2-12zm-3 29 2 1-2 1z" fill="#474747"/>
<path transform="translate(531,419)" d="m0 0h2v7l-7 5v3l4-4h3v5l-3 2h-3l2 8-1 6-7 11h-2l-2 4-5 4-10 5-8 2h-16l-12-4-10-7-4-4v-2l4 2 7 6 8 4 4 1 18 1 8-1v-2l2-1-2-1v-4h-8l-2 1-1-3 3-4-2-4 5-1 7-8 2-2h3v-2l6-4 2-3v-9l3-3 2 2 1 4v2l3-2 2-6z" fill="#AFAFAF"/>
<path transform="translate(370,382)" d="m0 0 6 1-2 2-3-1v2l6 1 7 3 6 1 1 4h2v7h2l1 4-5 1-8-5-17-4-19-1-15 2v2l-8 3-8 8-4 8-2 6h-10l3-2h5l3-10 4-8h2l2-4 5-5 2-5 8-4 7-1h4v2l5-1 1-3 9-1 2-1h7z" fill="#1D1D1D"/>
<path transform="translate(723,721)" d="m0 0 5 2 28 14 13 9 9 9-1 2v1 10l-1 6-5-2v-3h3v-2h-3v-3h-2l-1 2-1-2-4-1-2-1-1 2-1-5-3-1 1-7-6-2-2 2h-9l-2-5v-4l-1-4v2l-7-1v-2l-9-5-1-5-2-1v-4h5z" fill="#454545"/>
<path transform="translate(426,449)" d="m0 0 5 1 1 3h2l3 6 5 6h6l1-2h2v2l4 2 2 4 2 1-8 2-5-2h-2l-1 7 1 3 13 3 5 6v7h-2l-5-5-8-1v2l-7 3-2 1v-8l-4-1-1-3-2-1 1-2-5-1-1-4-2-4v-6-4l1-1v-10-3z" fill="#ADADAD"/>
<path transform="translate(55,780)" d="m0 0 8 2-1 7h2v6l-4 5h-2l1 4-1 3h3l-1 3-5 1-1 5-3 2h-4v-2l-5-1-5-3v-3l-3-1-2-3v-5h-2l-1-3 5-3h4l1-6 2-1 6-6z" fill="#808080"/>
<path transform="translate(474,400)" d="m0 0 4 1 9 2 6 2 10 6 4 5v2l-4-2-4-4-6-3-9-2-7 1-6 2 1 2h5v4l7-1 1-5h1v5l10 2 7 6v2l4 2-1 4-6-2-1-5-3-1v-2l-6-1-2 10-2 2h-15l-1-10-3 1-1-3-4 10h3v2h-6l-3 1 1-13-3-1h3v-4h5l-1-4 7 2-4-6 3-3h4v-2h3z" fill="#1D1D1D"/>
<path transform="translate(554,274)" d="m0 0h1l1 6 3-1-1 9-1 5 2 4v4l7-5-2 5-3 1 2 5h2l5-6 1 3-3 6-1 6 5 11 1 6-6-4 2 4 3 3 1 3v11l-2-1-3 5-3 3-2 4h-6l-3-7-5-4v-2l6-1 1-3h-2v-2h2l1-3 4 2v7l-2 2h-3v4l9-2 2-5-1-4-1-7-3 2-4-1 3-1v-7l2 1 2-9-5-1v-7l-1-4h-2v-3h-2v3l-7 3-5 2-5-1 3-3h6v-3h2l1-4 2-1 2 1 1-2-10 1v2l-3-1 1-2 7-4 1-5v-1h-2v-5l1-5 4-1z" fill="#646464"/>
<path transform="translate(424,551)" d="m0 0 2 2 3 1 6-2 4-1h20l4 2 18 1 1 4-4 1h-13l-9-2h-11l-24 2-15 3-12 4-3 2-3-1v2h-7l-1-4 1-4 7-3 7 1 4-2v-2l10-2h7l5-1z" fill="#1D1D1D"/>
<path transform="translate(316,459)" d="m0 0 2 4 1 4h2l2-4 3 1 3 3v2h-2l1 3 4-3h2l1-5-4 1v-2h20l4 1h4l2-4h11l-1 5-8 2-1 4-6 1v3l-3 2-6 1-4-1-3 2-5-1 2 4 5 2-4 1-10-6-8-8-5-8z" fill="#808080"/>
<path transform="translate(689,547)" d="m0 0 3 1 1 2 5 1-2 1v2h2v2h2l2 5 4 2 2 4h2v2l4 2v2h2l1 4 4 2 8 8v2l4 2 3 3v2l3 1 4 4v2h2l7 8 6 7 2 1v2l3 1v2h2l7 8 3 3v2l4 2 5 3 2 6 4 2 7 8 5 4 5 6 3 2v2l4 2 14 15v2h2l7 8 8 7 7 8 8 8v2l4 2 3 3-1 4-11-11v-2l-4-2-12-13-15-16-27-27v-2h-2v-2h-2l-7-8-20-20-6-7-24-24v-2h-2v-2h-2l-7-8-18-18v-2l-4-2-8-9-5-5z" fill="#717171"/>
<path transform="translate(505,665)" d="m0 0 1 2-8 17h-2l-1 5-2 3h-2l-1 4-1 2h-2l-1 4h-2l-1 4-12 12h-2l-2 4-9 10-8 7-8 6h-3v2l-6 3h-16l-9-5v-2l-4-1-15-14v-2h2l4 4 6 4 5 6 5 1v2l6 1 1 2 9 1 6-3h2v-2l6-1 1-7h2v-3l9-4 6-4 3-1 1-2 4-5h3v-2l8-7 9-12 1-4h3l2-5 6-10z" fill="#262626"/>
<path transform="translate(573,358)" d="m0 0h3v3h2l2-3 2 10-1 11-4 10-7 8-4 3-1-2-2 1v-3l-2 6-3-3 3-15 3-1v-6l4-1 1-6 2-3h-5l1-4 5 1z" fill="#656565"/>
<path transform="translate(326,611)" d="m0 0 1 2 4 2 5 5 1 5-2 1-2-1 7 8v3l6 2v5l2 4v4l4 1 2 4h3v3h3l2 5 6 1 2 1-1 2h-11l-1-3-4-2-1-5-4-1-4-4-8-4v-6-3l-1-1-1 3-1-5h-3l-1 3h-4v-8l2 4v-9l-2-12zm-3 29 2 1-2 1z" fill="#484848"/>
<path transform="translate(480,789)" d="m0 0h5v2h3v2l4-1h3l2-1 1 3v8l-2 3h-2v2l-7 1-1 3-4-14h-2l-3 5-4 4-2 4 1 8 1 1v8l-7-5-3 1-5 7h-1l-1-8 7-11 8-11 8-10z" fill="#5F5F5F"/>
<path transform="translate(299,521)" d="m0 0h5l2 4v6h2v3h2l-1 8 1 3-3 1v2l6-1-1 4-5 1v2h6l1 4 6 1-3 10-1 7h2v-2h3l2 3h2l2 8h2l1-3 3 4v3l-4 2h-6l-6-9-2-5h-2l-1 2-1-4 2-4v-3l-4-1-3-5-2-1v-2h2v-4l-2-1 2-3h-2l-2-5 2-5 2-2-3-7-3-1 2-5h-2z" fill="#474747"/>
<path transform="translate(390,391)" d="m0 0 5 1v4l3 1v3h2l1 9v3l1 4h5l-1 2h-2v2h-3l2 3 4 2v4l2 1-1 3h-2l1 7v8l-3 3v-17h-6l3-2-2-6-2-1v-4h-2v-5h-10v-2h-2l-1-6h-2l-2-6 5-1 9 5h4l-1-4h-2l-1-5 1-2h-2z" fill="#606060"/>
<path transform="translate(478,219)" d="m0 0h8l7 4 8 5-5-5-5-3v-1h7l8 3 5 2 2 4 5 2 2-1 2 4-5 1v2h2l-1 2h-8l-2-1-1 2-1-2-5-1-4 1-6-6 1 4h-3l-2-4-3-1-1-8-5-1z" fill="#6E6E6E"/>
<path transform="translate(521,394)" d="m0 0 5 1 7 11 1 5 10 2 4 4v2h2l1 8h-2l-3 9-2 5h-2v-9l4-5-4-1 1-10h-5l-3-1 1 2v12l-5 1-3 4h-2l-1-3 6-5h2v-7l-4 4-3-1-3-15z" fill="#656565"/>
<path transform="translate(460,559)" d="m0 0h2l1 3 9 1 2 1v2h-3v2h2v2h3l2-5 3 1v6l-2 4v3l-4-1-2-5-3 1 2 3-2 2h-4l-1-5 2-3-2-1-1-3-7 2-10-1-7-2-3 1-5 1-3-3v3l-7 1-2-1v-2h-4l1-3h8l12-1 10-2z" fill="#808080"/>
<path transform="translate(453,581)" d="m0 0 3 1-1 4-10 2h-3l-1 5-3 5-8 1-3 1 1-7 1-1-12-1v-2l-4 1-2-2-2-4 3-2z" fill="#1D1D1D"/>
<path transform="translate(559,443)" d="m0 0 3 1 1 2v14l-4 18-3 12h-1l-1-10-2-7-2-11-4-1v2l-3 1-1-4v-2l3-1 2-4h3l2-4 5-5z" fill="#696969"/>
<path transform="translate(797,843)" d="m0 0 3 1v2l4 2 3 6 1 3 5-2 5 1-1 7 4 2 2 4 2-1 3 10 1 11-5-2-3-1-1-4 1-2-4-1-4-6-3-4v-3l-5-1-2-6-3-3-2-7v-2z" fill="#4A4A4A"/>
<path transform="translate(534,414)" d="m0 0 9 2v10l3 1-2 4-1 1v11l7-3h7l3 3-5 2-2 4-3 4-3 1-2 4h-3l1 5h2v11l-3 2-2-21-2-8 1-7-4-10v-13z" fill="#878787"/>
<path transform="translate(403,499)" d="m0 0h16l5 4v9h2l1 5-3-3-4 1 2 6h-3v2l-5 1h-3v2h-3l-1-15 2-3-8-3-1-3z" fill="#1D1D1D"/>
<path transform="translate(165)" d="m0 0 6 2 5 5 6 5 7 8 6 6v3l4 2 6 6 2 3 10-8 1-2h2l-2 4-9 9 2 4 7 7v2l4 2 3 3v2l4 2 15 16 8 8v2h2v2l3 1 1 3-4-2-12-12v-2l-3-1v-2h-2l-7-8-15-15v-2l-3-1v-2l-4-1v-2h-5-4l1-3h6l-7-8-32-32z" fill="#818181"/>
<path transform="translate(535,252)" d="m0 0 5 1 2 2 1 4 6 2v2h2l1 4-5-2-1 7 3 1v3l2 1-1 3-4 1-5 5-1-1h-9l6-7 4 1-1-2h-3v-2h-2v-4l2-1-7-7-1-4-3-1v-4l4 1 4 9 3 3 3 1 2-4-6-2zm13 24-1 3h2z" fill="#656565"/>
<path transform="translate(386,909)" d="m0 0 1 4h2v77l-2 2-4-18-1-12v-20l-1-4v-9l2 2 2-1 1 7 1 1v-21l-1-3z" fill="#7D7D7D"/>
<path transform="translate(520,237)" d="m0 0h4l3 4-1 4 4 2 3 2-2-5-1-3h5v2l7 2 2 4-1 5-8-2 1 10 7 1-3 5-4-1-4-4-2-9-8-4v-2l-5-1-2-5-2-2 7 1 4 1 1-1-5-1z" fill="#686868"/>
<path transform="translate(273,457)" d="m0 0 1 2h2v2l8-1 2-1 2 1 1-2-2 19-5-1v-2l-10-5-1-3-10-2-1 6v13h-1l-1-6v-12l4-5 4-2z" fill="#616161"/>
<path transform="translate(543,473)" d="m0 0 10 10-1 16-2 4-3 2h-3l-1 11h-1v-5h-2v-9l1-2z" fill="#646464"/>
<path transform="translate(398,196)" d="m0 0 8 3 1 1 15 2 2 1 1 4-6-1-4-2h-3l8 5 10 5-1 3h-5l1 4 3 1 1 6-2-1-1-3-3-1v-3l-4-2-9-10-2-1-1-3-2-1-1 2-3-2v2l-10 1h-14l4-2 5-2 9 1 5 1-1-5-2-2z" fill="#5D5D5D"/>
<path transform="translate(340,575)" d="m0 0h6l2 4v3l-2 1v2l6 2v5l5-1 1-3 4-3 1 5-2 5-2 1 1 4-1 2-3-1v-4l-3-1v-3l-5 1-5 3-7-1-1-4 2-2v-6l-1-2h7l-3-3z" fill="#494949"/>
<path transform="translate(329,654)" d="m0 0 2 1 5 13 5 8v2l5 1 2 5 4 3-1 2 4-1 2 5h-2l5 3v2h3l1 4 6 6 5 1 2 4h3l2 5 6 5 1 3-5-2-7-7-11-8v-2l-4-2-9-9-7-8-4-5v-3l-4-2-5-9-3-8-1-1z" fill="#363636"/>
<path transform="translate(279,119)" d="m0 0h2l7 8 5 5 2-2 3 3 1 5 4 4v2l4 1h3l2 4-1 3h2v2h2l4 5 5 5 1 3h2l5 6 5 5 4 5 3 2v2l4 2 6 7 2 1v3l4 2 3 4-4-1-13-13v-2h-2v-2l-4-1-7-8-8-9v-2h-2l-7-8v-2h-2v-2h-2l-7-8-7-7v-2h-2v-2l-3-1-7-8-7-7z" fill="#818181"/>
<path transform="translate(381,408)" d="m0 0 3 4-1 2h2v2h10v5h2l2 4h1l2 8-6 1-1-2h-4l-1-2v-9h-3v3l-7 2h-9v-2l6-1-1-4 2-3h4l-1-2z" fill="#484848"/>
<path transform="translate(554,274)" d="m0 0h1l1 6 3-1-1 9-1 5 2 4v4h-2v5h-2v3l-7 3-5 2-5-1 3-3h6v-3h2l1-4 2-1 2 1 1-2-10 1v2l-3-1 1-2 7-4 1-5v-1h-2v-5l1-5 4-1z" fill="#636363"/>
<path transform="translate(690,712)" d="m0 0 11 1 5 2v2l3-1 2 1v2l4 1 3 6v5h-8v-2l-5-1-2-4h2l-2-2-5 3-3-2-3-8z" fill="#484848"/>
<path transform="translate(546,461)" d="m0 0 5 1 3 17 1 1 1 7 1 4-4 20-2 1v-4l-3 1-2 4h-2v-8l6-3 2-11 1-8-3-1-5-7v-12z" fill="#838383"/>
<path transform="translate(473,379)" d="m0 0h7l1 3h14l7 2v1h-20l-11 3-15 6-7 4v-5l3-1 1-3 6-6h2l1 4 2-4 2-3z" fill="#1D1D1D"/>
<path transform="translate(689,547)" d="m0 0 3 1 1 2 5 1-2 1v2h2v2h2l2 5 4 2 2 4h2v2l4 2v2h2l1 4 4 2 8 8v2l4 2 3 3v2l3 1 4 4v2h2l7 8 6 7 2 1v2l3 1v2h2l1 4-8-6-7-8-15-15v-2h-2v-2h-2l-7-8-18-18v-2l-4-2-8-9-5-5z" fill="#717171"/>
<path transform="translate(568,333)" d="m0 0 3 1 2 5v11l-2-1-3 5-3 3-2 4h-6l-3-7-5-4v-2l6-1 1-3h-2v-2h2l1-3 4 2v7l-2 2h-3v4l9-2 2-5v-4h2v-2h-2z" fill="#575757"/>
<path transform="translate(369,402)" d="m0 0 8 1-6 11-5 5h-2l-3-4v-2l-13 4-5 4-4-1v-4l9-3 1-2 12-2 2-3h9v-2l-3-1z" fill="#1D1D1D"/>
<path transform="translate(612,468)" d="m0 0 4 1v2h2v2l4 2 9 10 5 4 7 8 12 13 15 15 7 8 11 11-1 2-8-7-4-4v-2l-4-2-9-10-15-15-7-8-18-18-7-8z" fill="#6D6D6D"/>
<path transform="translate(345,399)" d="m0 0h14l9 2v1l-18 1-5 2-7 1-1-2h-4l1 4h-2l-1 2-5-2v4l-4 4h-3l2 5-3 3-1-2-2 1 1-6 4-6 5-5 10-5z" fill="#1D1D1D"/>
<path transform="translate(723,721)" d="m0 0 5 2 28 14 10 7v3l-10-7h-3v-2h-7l2-1v-2l-3 1v-2l-4 1v-3h-4v-2l-6-2-7-2v2l8 1 1 2-4 1-1 3 2-2 2-1 1 4h-6l-7-5v-4l-2-1v-4h5z" fill="#484848"/>
<path transform="translate(261,463)" d="m0 0 6 1 2 2-1 1-2 16v13l4-1v6l-2-2 1 8-3-4-3-10-2-3-1-5-1-19z" fill="#202020"/>
<path transform="translate(533,427)" d="m0 0 1 3h2v7l-4 11-6 11-4 5-8 7-12 6-7 2-1-3 11-3 9-6 5-5h2l2-5 5-8-1-12 5-2 1-5-2-1h2z" fill="#6A6A6A"/>
<path transform="translate(565,376)" d="m0 0h1l1 9 3 1 1 4 6-9 3 2-5 9-8 8-2-2-2 1v-3l-2 6-3-3 3-15 3-1v-6z" fill="#737373"/>
<path transform="translate(364,799)" d="m0 0 2 4 4-1 3 1v-2l4 2 7 7-1 2-6-5 4 10-1 2-2-1-2-4-8-2-2-2h-9l-5-3-1-3h2l1-2 6 5h2z" fill="#676767"/>
<path transform="translate(529,374)" d="m0 0 2 1v4h3l-1 2-2-1 3 5v3h2l1 5h2l4 6 2 9-10-1-7-23z" fill="#626262"/>
<path transform="translate(473,803)" d="m0 0h2v2l-2 1-2 4 1 8 1 1v8l-7-5-3 1-5 7h-1l-1-8 7-11 6-4h2z" fill="#818181"/>
<path transform="translate(358,413)" d="m0 0h3l2 3v4h-2l-2 5-17 1-3-2v-3l7-3 2-2z" fill="#606060"/>
<path transform="translate(516,233)" d="m0 0 14 1 7 3v2l3 1 5 5v2l3 1-1 2-6-5-6-2v-2h-5l4 6-1 3-7-5-1-5-1-3h-4v3l5 1-1 2-9-2-3 1v-3l7-1v-2h-2z" fill="#303030"/>
<path transform="translate(401,569)" d="m0 0 3 1 1 2h6l5 3 1 6 2 1-9 2 2 3 1 3 2 1h-5v3l-3-1-1-2-5-2-1-2 5-1 1-7-5-5-1-3z" fill="#484848"/>
<path transform="translate(441,211)" d="m0 0 9 1 2 1 9 1v1h-5v2h6v-2h4v3l4 1 1 8h-4l-1-3h3v-2l-10-1 6 5 1 5-4-2-5-5-4-5-6-4-2 3h-3z" fill="#595959"/>
<path transform="translate(354,315)" d="m0 0h2l-1 5-2 2v3l-5 4-5 2h-4l-1 4-3 6-6 2-5 5-3 2 2-7 5-5 4-1 2-4h2l2-4 3-1 2-4 4-2 1-3 5-3z" fill="#484848"/>
<path transform="translate(433,420)" d="m0 0h6l2 8h-1l-1 6h-5l1 5 1 6-1 4-3-4v-5l-6 1h-6v-3l9-2 2-3-3-1h2v-3h5l-3-5 1-1-3-2z" fill="#686868"/>
<path transform="translate(380,588)" d="m0 0 7 2 2 4h-4l1 4 4-2 2 2 4-2 1 5 2-3h3l1 4-5 2v-2l-3 1-1 2h-2v4l-5-1 1-4-3-1 1-2-3-1-6 1 2-6h5v-4l-4-1z" fill="#3F3F3F"/>
<path transform="translate(551,254)" d="m0 0 3 1 3 7 3 10v5l-2-4v-3l-2 2 2 7-3 3v-8h-2v2h-4v-3l-4-1 2-7 4 1v-3h-2l-2-4 3-1v3h3l-2-4-2-2zm-3 22 1 3h-2z" fill="#6D6D6D"/>
<path transform="translate(384,812)" d="m0 0 7 6 3 5 4 2 8 9 1 3-1 6h-2l-1-5-4-2-4-3h-2l-8-16z" fill="#626262"/>
<path transform="translate(464,563)" d="m0 0h8l2 1v2h-3v2h2v2h3l2-5 3 1v6l-2 4v3l-4-1-2-5-3 1 2 3-2 2h-4l-1-5 2-3-2-1z" fill="#818181"/>
<path transform="translate(424,541)" d="m0 0 4 1v3h3v3l-3 3-1 3 2 1-4-1-1-1h-7l-3 1-15 1 4-3h3v-2l9-5 2 1v2h2l1-3 2 4h3l-2-6z" fill="#474747"/>
<path transform="translate(378,485)" d="m0 0 2 1-1 2-3 1-3 7-9 1-3-2-3 1-2-1v-3h-8l-12-3-2-1 1-2 11 3 13 1 11-2z" fill="#808080"/>
<path transform="translate(402,439)" d="m0 0 2 1-1 10-3 9-6 11-9 9-14 7-9 2h-13l-7-2v-1h23l14-5 8-6 7-8 5-11 1-13z" fill="#B0B0B0"/>
<path transform="translate(299,521)" d="m0 0h5l2 4v6h2v3h2l-1 8 1 3-3 1v2l6-1-1 4-6 2v-2h-2l-2-5 2-5 2-2-3-7-3-1 2-5h-2z" fill="#464646"/>
<path transform="translate(306,553)" d="m0 0 7 1 1 4 6 1-3 10-1 3-3-1v-3l-4-1-3-5-2-1v-2h2l-1-5z" fill="#4A4A4A"/>
<path transform="translate(485,388)" d="m0 0h15l6 2 1 2-1 2h-2v-3l-5 1-1-2h-4l-1 3-3-1-1 1-11 2-9-1v2l-5-1v-2l14-4z" fill="#202020"/>
<path transform="translate(478,219)" d="m0 0h8l7 4 2 2 2 5 2 7-5-2-3-4 1 4h-3l-2-4-3-1-1-8-5-1z" fill="#5C5C5C"/>
<path transform="translate(347,396)" d="m0 0h8l5 1v1l-15 2-12 3-8 4-5 5-5 6-3 7h-1l1-7 5-8 7-7 4-2h4v-2z" fill="#7A7A7A"/>
<path transform="translate(578,349)" d="m0 0h1v17h-1v-5h-2v-3h-3v6h-4-2l-1 3h5l-3 9-4-2-1-9 5-6 3-6h2l2-3v5h2v-5z" fill="#4F4F4F"/>
<path transform="translate(823,685)" d="m0 0 5 4v2h2l7 8 8 7 7 8 8 8v2l4 2 3 3-1 4-11-11v-2l-4-2-12-13-15-16z" fill="#767676"/>
<path transform="translate(613,689)" d="m0 0 17 4v3l5 1v2l3 1-1 5-6-2v-2l-5-1-7-2v-4l-6-1v-3z" fill="#575757"/>
<path transform="translate(556,446)" d="m0 0h5v16l-3 1 1 6-3 7-2-1-1-10 2-1v-11l-2-1z" fill="#1D1D1D"/>
<path transform="translate(473,620)" d="m0 0 6 2-2 4-8 3-5-1-1 2v-2h-2l1 3-2 2-6-1-2-1-2 4-4 1v-3l-2-1h2v-2h2v2h3l1-4h3 5l1-3 9-2h2z" fill="#484848"/>
<path transform="translate(535,252)" d="m0 0 5 1 2 2 1 4 6 2v2h2l1 4-5-2-1 7 3 1v3h-3l-1 2-3-10v-4l-6-2z" fill="#3D3D3D"/>
<path transform="translate(393,533)" d="m0 0 4 1 2-1 3 1v2l-2 1h3l-1 4h-6l-3 3-5 2-4 2 1-4-3-1v-2h3v-3l7-4z" fill="#484848"/>
<path transform="translate(551,507)" d="m0 0 1 3v10l2 2v6l-4-4-5 1-3-3 1-14h1v5h2l2-5z" fill="#818181"/>
<path transform="translate(368,401)" d="m0 0 2 1 2 4-9 1-2 3-12 1 2-1v-5l-4-1 3-2z" fill="#5A5A5A"/>
<path transform="translate(329,428)" d="m0 0 3 2-1 2h3v3l-2 1-1 5 6 4-1-4 4 2h5l1-3 2 3-1 2h-6l-1 2 5 1 1 3-7-1-5-4h-10l1-6 3-3z" fill="#474747"/>
<path transform="translate(542,414)" d="m0 0 5 1 1 4h2l1 8h-2l-3 9-2 5h-2v-9l4-5-4-1z" fill="#656565"/>
<path transform="translate(390,391)" d="m0 0 5 1v4l3 1v3h2l1 9v3l1 4h5l-3 3-4-1v-3h-2l-4-5-2-1v-3h4l-1-4h-2l-1-5 1-2h-2z" fill="#4B4B4B"/>
<path transform="translate(398,196)" d="m0 0 8 3 1 1 15 2 2 1 1 4-6-1-9-3h-5l-1 2-3-2v2l-10 1h-14l4-2 5-2 9 1 5 1-1-5-2-2z" fill="#707070"/>
<path transform="translate(784,760)" d="m0 0h6l3 3-1 3 4 6-1 4-2-3-5-3h-2l-1 3h-5v-11z" fill="#4A4A4A"/>
<path transform="translate(561,414)" d="m0 0 3 1 4 4v2h2l5 6 5 5 5 4h2l4 7 4 4v2h2l7 8 7 7 1 3-4-2-1-3h-2v-2l-3-1-7-8-10-10-4-5-18-18v-2h-2z" fill="#7B7B7B"/>
<path transform="translate(439,427)" d="m0 0 5 2-1 4 1 4 4 2-1 3-7-4h-1l1 7 4 8v2l-4-1-5-13-2-4 1-4 5 1z" fill="#AEAEAE"/>
<path transform="translate(377,442)" d="m0 0 3 1-1 3-8 4-9 2-1 1h-10l-5-1 3-3 18-2 1-2h3v-2z" fill="#484848"/>
<path transform="translate(411,620)" d="m0 0h4l1 7v3h4v2l3-1 2-3h2l2 4-1-4 4 2 1 3-1 2 3 1-4 2-13-3v-3l-3-1-1-7h-2v4h-2z" fill="#474747"/>
<path transform="translate(408,737)" d="m0 0 10 1 3 4 11 1 1 2-6 3-9-1-4-3-5-1v-2l-4-1z" fill="#454545"/>
<path transform="translate(473,708)" d="m0 0 1 3-4 2v2h-3l-2 4-3 3-9 6-1-3 1-3 3-2 1-4 4-3 6-2z" fill="#474747"/>
<path transform="translate(534,414)" d="m0 0 9 2v10l3 1-1 3-5-2-1-1 2 8-1 5-2-3-3-7v-13z" fill="#878787"/>
<path transform="translate(724,726)" d="m0 0 7 1 14 7-1 5-2-2-1 4-3-1h-1l-7-1v-2l3-1-1-4-2 3h-2l1-4 3-1-5-1-3-1z" fill="#565656"/>
<path transform="translate(243,330)" d="m0 0h3v7h2v7l-1 4v13l1 3-1 3-3-6-1-7-2-4v-9l2 1z" fill="#737373"/>
<path transform="translate(326,611)" d="m0 0 1 2 4 2 5 5 1 5-2 1-2-1 2 4-4-1-4 4-1-14-1-5z" fill="#474747"/>
<path transform="translate(525,403)" d="m0 0 3 2 3 10h4l1 2v12l-5 1-3 4h-2l-1-3 6-5h2v-7l-6 2 1-7-3-7z" fill="#5B5B5B"/>
<path transform="translate(473,386)" d="m0 0h29l13 4 1 2-5-1-10-3h-13l-22 5-4-1 1-2z" fill="#878787"/>
<path transform="translate(420,415)" d="m0 0h18l3 1-1 6-2-4h-10l-10 1-15 5-2-4 13-4z" fill="#B0B0B0"/>
<path transform="translate(491,219)" d="m0 0h7l8 3 5 2 5 8-9-3-4 1-1-4-10-5z" fill="#AFAFAF"/>
<path transform="translate(480,793)" d="m0 0 4 1 5 9 5-1 2-5 1 4-1 4h-2v2l-7 1-1 3-4-14h-2l-3 5-2 1 1-5z" fill="#818181"/>
<path transform="translate(482,213)" d="m0 0h13l7 4 7 3 8 7 2 4-6-3-5-5-4-1-6-2h-8l-3-2 10-1-1-1-14-1z" fill="#4F4F4F"/>
<path transform="translate(329,172)" d="m0 0 5 2 7 9 3 2v2l4 2 6 7 2 1v3l4 2 3 4-4-1-13-13v-2h-2v-2l-4-1-7-8-4-5z" fill="#7E7E7E"/>
<path transform="translate(389,726)" d="m0 0h2l4 4 6 4 5 6 5 1v2l6 1 1 2 6 2 1 2h-8l-9-5v-2l-4-1-15-14z" fill="#292929"/>
<path transform="translate(392,417)" d="m0 0 3 2v2h2l2 4h1l2 8-6 1-1-2h-4l-1-2v-7z" fill="#1D1D1D"/>
<path transform="translate(417,590)" d="m0 0h21v2l4-1-3 6-1 1-8 1-3 1 1-7 1-1-12-1z" fill="#484848"/>
<path transform="translate(546,461)" d="m0 0 5 1 3 17-1 3-6-7-2-1v-11z" fill="#B0B0B0"/>
<path transform="translate(464,914)" d="m0 0h1l7 43-1 4v-3h-2l-2-7v-5h-2z" fill="#6B6B6B"/>
<path transform="translate(476,934)" d="m0 0h2l1 5 1 15 2 10-1 14h-1l-2-10-2-24z" fill="#7D7D7D"/>
<path transform="translate(451,462)" d="m0 0 4 2 9 7 11 4 3 1 17 1v2h-18l-7-2-13-6-4-5-2-1z" fill="#626262"/>
<path transform="translate(495,599)" d="m0 0 5 1 4 8v2l-10 1-3-1-1-3 1-3 5-2z" fill="#575757"/>
<path transform="translate(835,927)" d="m0 0 5 5 3 5 3 7-1 4-5-2-3-3-1-8-1-2z" fill="#595959"/>
<path transform="translate(689,709)" d="m0 0 12 2 13 5 10 6-3 1-3-1-1 4-3-6-3-1v-2l-6 1-4-4-14-2v-2z" fill="#303030"/>
<path transform="translate(728,724)" d="m0 0 6 2 22 11 10 7v3l-10-7h-3v-2h-7l2-1v-2l-3 1v-2l-4 1v-3h-4v-2l-6-2-3-2z" fill="#2F2F2F"/>
<path transform="translate(333,402)" d="m0 0m-3 1h3l1 5h-2l-1 2-5-2v4l-4 4h-3l2 5-3 3-1-2-2 1 1-6 4-6 5-5z" fill="#1E1E1E"/>
<path transform="translate(553,250)" d="m0 0h2l4 9 2 12 5 5 1 5-3-1-5-8-3-10-3-7-5 1v-3l5-1z" fill="#727272"/>
<path transform="translate(287,471)" d="m0 0h1l2 17v8h-6l-1-6 3-1 1-3h-2l-2-8 3-1z" fill="#1D1D1D"/>
<path transform="translate(557,298)" d="m0 0 2 1v2h-2v5h-2v3l-7 3-5 2-5-1 3-3h6v-3h2l1-4 2-1 2 1 1-2-4-1z" fill="#5F5F5F"/>
<path transform="translate(770,748)" d="m0 0 7 6v3 1 5l-5 3 1-4h-2l1-4-6-5 1-2 2 1-1-3z" fill="#525252"/>
<path transform="translate(446,495)" d="m0 0h6l1 6-5 2h-7l-3-2 1-3z" fill="#1D1D1D"/>
<path transform="translate(385,960)" d="m0 0 1 2h2l1 28-2 2-3-12 1-9z" fill="#606060"/>
<path transform="translate(469,394)" d="m0 0h5l-4 1 1 4h2l1-3h5v3l3 3-5-1-3-1v2h-3v2l-5 2h-4l-1-4h3l-1 3 2-2v-2l3-1 1-3h-5v-2l5 1z" fill="#484848"/>
<path transform="translate(530,241)" d="m0 0h5v2l7 2 2 4-1 5-5-1-3-4v-2l-3-1z" fill="#A8A8A8"/>
<path transform="translate(526,455)" d="m0 0 1 2-5 7-8 7-12 6-7 2-1-3 11-3 9-6 5-5h2l2-5z" fill="#6C6C6C"/>
<path transform="translate(577,381)" d="m0 0 3 2-5 9-8 8-1-4 2-9 2-1 1 4z" fill="#6A6A6A"/>
<path transform="translate(425,801)" d="m0 0h20l9 1 2 2h-39v-1z" fill="#5D5D5D"/>
<path transform="translate(337,741)" d="m0 0 2 4 3 7 2 16h-2v5l-2-4-3-20z" fill="#6F6F6F"/>
<path transform="translate(439,752)" d="m0 0h7l3 2h-11v2h6l-1 3-7 1-12-1 4-3z" fill="#676767"/>
<path transform="translate(431,434)" d="m0 0h2l3 7v7l-2 1-2-6v-3l-6 1h-6v-3l9-2z" fill="#676767"/>
<path transform="translate(434,514)" d="m0 0h2l3 4-1 3-1 1v5l1 4-5 3h-2v-7h2v-6l1-2-2-2h2z" fill="#3B3B3B"/>
<path transform="translate(358,214)" d="m0 0 2 1-2 3 5-1h2 6v6l-5-1h-12l-2-3 4-1-3-1z" fill="#4A4A4A"/>
<path transform="translate(361,585)" d="m0 0 2 2-1 7-3 2 1 4-1 2-3-1v-4l-3-1v-4l4-1 1-3z" fill="#484848"/>
<path transform="translate(577,369)" d="m0 0 2 1-1 11-7 10-1-4 1-7 2-4h2z" fill="#B0B0B0"/>
<path transform="translate(340,427)" d="m0 0 3 1 1 3 4-1 2 8-3 1-1 2-6-2z" fill="#606060"/>
<path transform="translate(467,211)" d="m0 0 10 1 5 2 14 1 2 3h-12l-6-2h-6l-3-3z" fill="#6C6C6C"/>
<path transform="translate(269,465)" d="m0 0 3 1 1 3 2 2-2 6v2h-2l1 5-2 4-2-4 1-1v-11h-2v-5z" fill="#484848"/>
<path transform="translate(372,544)" d="m0 0h6l4 4-1 5-9 1v-2h2v-2h2l1-2h-7z" fill="#626262"/>
<path transform="translate(39,34)" d="m0 0 1 3 3 1 2 2 3 4 3 1v2h3v3l4 2 5 6-1 2-15-14-10-10z" fill="#838383"/>
<path transform="translate(442,741)" d="m0 0m-3 0 3 1v3h-3v2l-6 3h-8l-1-2 9-4h2v-2z" fill="#232323"/>
<path transform="translate(766,627)" d="m0 0h2l7 8v2l4 2 5 3 2 6 4 2-1 3-23-23z" fill="#7A7A7A"/>
<path transform="translate(561,464)" d="m0 0 1 2-2 5-3 16-2 3-1-10-2-7v-2h2l2 4 2-6z" fill="#6A6A6A"/>
<path transform="translate(557,339)" d="m0 0 4 2v7l-6 4-2 2-4-4v-2l6-1 1-3h-2v-2h2z" fill="#5D5D5D"/>
<path transform="translate(553,291)" d="m0 0h3l3 6-1 2-7 2-6 1v2l-3-1 1-2 7-4 1-5z" fill="#686868"/>
<path transform="translate(331,627)" d="m0 0 4 2v4l-1 3-3 1-2 3h-4v-8l2 4 1-5zm-8 13 2 1-2 1z" fill="#5D5D5D"/>
<path transform="translate(394,596)" d="m0 0h2l1 5 2-3h3l1 4-5 2v-2l-3 1-1 2h-2v4l-5-1 1-4 5-3-2-2z" fill="#484848"/>
<path transform="translate(407,581)" d="m0 0 5 1-2 3 3 3v2l2 1h-5v3l-3-1-1-2-5-2-1-2 5-1z" fill="#464646"/>
<path transform="translate(318,353)" d="m0 0 1 4-1 8-2 5-4 3-1-8 5-9z" fill="#464646"/>
<path transform="translate(454,647)" d="m0 0h6v3h-3v3l-7 3-3-1 1-3-4-1 8-3z" fill="#484848"/>
<path transform="translate(465,419)" d="m0 0 3 3h2l1 10h-6v-2h-3z" fill="#595959"/>
<path transform="translate(406,302)" d="m0 0 4 1h-2v2h10v1l-7 1-2-1-1 2-6-1-4 1h-7l-1-5h2v3z" fill="#484848"/>
<path transform="translate(402,439)" d="m0 0 2 1-1 10-3 9-6 11-4 1 5-7 4-9 1-13z" fill="#929292"/>
<path transform="translate(360,397)" d="m0 0 10 1 9 2-1 3-8-1-20-3v-1z" fill="#646464"/>
<path transform="translate(437,206)" d="m0 0h3v2h13v1l-13 1-2-1v3l-8 1-4-6 11 1z" fill="#707070"/>
<path transform="translate(537,424)" d="m0 0 3 2v2l4 2-1 2v11l5-2 4 1-4 3-8 1v-11z" fill="#676767"/>
<path transform="translate(520,237)" d="m0 0h4l3 4-1 4 2 1-4-1-2-1v4l-5-1-2-5-2-2 7 1 4 1 1-1-5-1z" fill="#777"/>
<path transform="translate(505,665)" d="m0 0 1 2-8 17h-2l-1 5-3 3-1-4 5-7 6-11zm-17 25 3 1-3 2z" fill="#2C2C2C"/>
<path transform="translate(573,358)" d="m0 0h3l1 7-4 9h-1v-7h-6l1-4 5 1z" fill="#A4A4A4"/>
<path transform="translate(522,244)" d="m0 0 7 2 3 2 2 4-1 3-10-4-1-1z" fill="#848484"/>
<path transform="translate(749,737)" d="m0 0 7 2 7 5-2 1-1 3h-2v-4l-3 1-2-2-7-1v-4z" fill="#616161"/>
<path transform="translate(493,421)" d="m0 0h3l3 3v5l-6 2-4-1 2-7z" fill="#8E8E8E"/>
<path transform="translate(376,306)" d="m0 0 2 1-5 6-10 2-1 2v-8h4l8-2z" fill="#474747"/>
<path transform="translate(247)" d="m0 0 3 1-10 10-5 6h-2l-1 3-6 3v-2h2l1-3 10-10h2l1-4h2v-2z" fill="#818181"/>
<path transform="translate(537,238)" d="m0 0 5 1 6 3 6 8-1 2h-2l-4-4-7-6z" fill="#7C7C7C"/>
<path transform="translate(415,514)" d="m0 0 2 2h-2l1 6 3 1-5 1h-3v2h-3v-8h3v-2z" fill="#3F3F3F"/>
<path transform="translate(557,313)" d="m0 0h2v7l2 4-1 3-5-1v2l-3-1 1-5h2v-8z" fill="#4F4F4F"/>
<path transform="translate(347,396)" d="m0 0h8l5 1v1l-15 2-5 1h-8v-2z" fill="#7E7E7E"/>
<path transform="translate(521,402)" d="m0 0 2 2 3 12v8l-3-1-2-3z" fill="#AFAFAF"/>
<path transform="translate(316,459)" d="m0 0 2 4 1 4h2l2-4 3 1 3 3v2h-6l1 5-5-5-4-6z" fill="#838383"/>
<path transform="translate(342,773)" d="m0 0 1 2h3l1 7h-2l3 4 5 9-4-1-2-3-2 1-2-11-1-2z" fill="#787878"/>
<path transform="translate(544,482)" d="m0 0h2l1 10 1 4v7l-5-1 2-1-2-1z" fill="#474747"/>
<path transform="translate(287,433)" d="m0 0 3 1-4 4-6 2v2h-3v8l-3-3v-5l8-6z" fill="#B0B0B0"/>
<path transform="translate(462,215)" d="m0 0h4v3l4 1 1 8h-4l-1-3h3v-2l-6-1-5-2v-2h4z" fill="#7E7E7E"/>
<path transform="translate(271,514)" d="m0 0 2 2 3 7 2 4 5 1v4h-6l-1-4h-2l-2-6-1-2z" fill="#262626"/>
<path transform="translate(439,427)" d="m0 0 5 2-1 4 1 4 4 2-1 3-7-4h-2z" fill="#949494"/>
<path transform="translate(245,317)" d="m0 0 1 3-1 7 1 3h-3l1 16-2-4-1-1v-12l3-11z" fill="#4B4B4B"/>
<path transform="translate(121,746)" d="m0 0h5v3l3 1-3 4h-4v2l-2-1-1-8z" fill="#7A7A7A"/>
<path transform="translate(511,717)" d="m0 0h1l-1 8-4 23-2-4 1-8 1-10 3-5z" fill="#666"/>
<path transform="translate(744,606)" d="m0 0 4 1 12 12v2l3 1v2h2l1 4-8-6-7-8-7-7z" fill="#696969"/>
<path transform="translate(548,423)" d="m0 0 3 1v3h-2l-3 9-2 5h-2v-9l5-6z" fill="#232323"/>
<path transform="translate(401,201)" d="m0 0h5l-2 4-3-2v2l-10 1h-14l4-2 5-2 9 1 5 1z" fill="#686868"/>
<path transform="translate(411,669)" d="m0 0 8 1 3 1v2h-4v2l-7 1v-3l-2-2z" fill="#1E1E1E"/>
<path transform="translate(545,454)" d="m0 0 1 3-4 1 1 5h2v11l-3 2-1-7v-13z" fill="#818181"/>
<path transform="translate(292,430)" d="m0 0v3l-2 4-3 3h-3l3 2-2 4-3 2-1-2 1-5-2-1 9-5-1-4z" fill="#6C6C6C"/>
<path transform="translate(627,691)" d="m0 0 10 1 2 4 6 1v1l-13-1-2-1v-3h-3z" fill="#353535"/>
<path transform="translate(499,216)" d="m0 0 7 2 8 6 5 5-1 2-5-3-5-5-4-1v-2l-4-1z" fill="#353535"/>
<path transform="translate(22,17)" d="m0 0 3 1 4 5 4 3 4 7-1 2-10-10-4-5z" fill="#818181"/>
<path transform="translate(403,446)" d="m0 0 2 4 1-2h2v5l-4 6h-3l-1-3z" fill="#6E6E6E"/>
<path transform="translate(534,414)" d="m0 0 9 2-1 10-2-1-1-4-1 2h-2z" fill="#ADADAD"/>
<path transform="translate(296,260)" d="m0 0 3 1-9 8-4 4 1-7 4-5z" fill="#5B5B5B"/>
<path transform="translate(465,809)" d="m0 0 2 4-3 2 3 1-3 1-1 3h-2l-1 2-4 2 2-5 6-9z" fill="#646464"/>
<path transform="translate(416,276)" d="m0 0 10 2-4 2h-13l-7-1v-1z" fill="#5E5E5E"/>
<path transform="translate(407,607)" d="m0 0 3 3-1 4v-2h-2l-1 6-4 1-3-2 1-3 3 1-1-5 6 1z" fill="#484848"/>
<path transform="translate(441,444)" d="m0 0 2 1 1 6h2l4 7 2 4h-3l-1-3h-2l-6-12z" fill="#6A6A6A"/>
<path transform="translate(495,599)" d="m0 0 5 1 1 3h-5l1 5-3 2h-3l-1-3 1-3 5-2z" fill="#434343"/>
<path transform="translate(730,590)" d="m0 0 4 2 2 4 3 1 4 4v2h2l1 3-4-1-6-6v-2h-2v-2h-2z" fill="#707070"/>
<path transform="translate(370,554)" d="m0 0 4 1v6l-1 2-7-2 1-5z" fill="#1D1D1D"/>
<path transform="translate(389,538)" d="m0 0 4 1v2h-3l-1 4-3 3h-2l1-4-3-1v-2z" fill="#1D1D1D"/>
<path transform="translate(391,506)" d="m0 0 3 2 7 2 4 1 4-2-2 7-1-3h-7l-6-2-2-1z" fill="#424242"/>
<path transform="translate(544,499)" d="m0 0v3l4 2-4 1-1 11h-1v-5h-2v-9z" fill="#656565"/>
<path transform="translate(329,172)" d="m0 0 5 2 7 9 2 1v3h-3l-7-8-4-5z" fill="#767676"/>
<path transform="translate(808,860)" d="m0 0 4 2 4 6 1 5-6-2z" fill="#5E5E5E"/>
<path transform="translate(515,597)" d="m0 0 2 1-2 4-1 17h-1l-1-8-3-1 2-5v-5h2z" fill="#737373"/>
<path transform="translate(373,712)" d="m0 0 7 1 2 5 6 5 1 3-5-2-7-7-4-3z" fill="#2A2A2A"/>
<path transform="translate(823,685)" d="m0 0 5 4v2h2l7 8 4 4-1 3-16-17z" fill="#7E7E7E"/>
<path transform="translate(328,482)" d="m0 0 6 2 4 1 6 1 5 1v3l-11-2-8-3-2-1z" fill="#6C6C6C"/>
<path transform="translate(568,372)" d="m0 0h2l-1 7 2 1v7l-5-1v-10h2z" fill="#868686"/>
<path transform="translate(555,306)" d="m0 0h2v3h2l2 4v4h-2l-1 3 1-7-5 2-2-6h3z" fill="#393939"/>
<path transform="translate(535,252)" d="m0 0 5 1 2 2 1 6h-5l-2 1z" fill="#474747"/>
<path transform="translate(463,437)" d="m0 0h9v2l9 3v1h-8l-10-5z" fill="#1D1D1D"/>
<path transform="translate(298,238)" d="m0 0h4l-1 3-6 3-2 7-5 2-3-1 5-3 2-5 4-5z" fill="#6A6A6A"/>
<path transform="translate(377,442)" d="m0 0 3 1-1 3-7 3-4-1 1-3h2v-2z" fill="#1D1D1D"/>
<path transform="translate(516,233)" d="m0 0 12 2-4 2h-4v3l5 1-1 2-9-2-3 1v-3l7-1v-2h-2z" fill="#2B2B2B"/>
<path transform="translate(709,715)" d="m0 0 5 1 10 6-3 1-3-1-1 4-3-6-3-1v-2h-2z" fill="#212121"/>
<path transform="translate(452,460)" d="m0 0 4 2 7 6 9 5-4 1-11-7-5-5z" fill="#AEAEAE"/>
<path transform="translate(525,403)" d="m0 0 3 2 3 10-1 5-3 1 1-7-3-7z" fill="#1D1D1D"/>
<path transform="translate(578,349)" d="m0 0h1v17h-1v-5h-2v-3h-3l-1 2 1-5h4v-5z" fill="#464646"/>
<path transform="translate(565,376)" d="m0 0h1v14l-2 1v-3h-2l-1 3v-7l3-1v-6z" fill="#525252"/>
<path transform="translate(365,557)" d="m0 0 1 2 2 1-1 1 5 2-1 2h-3v6h-2l-2-5v-4z" fill="#484848"/>
<path transform="translate(288,458)" d="m0 0 1 3-2 16h-1l-2-12v-3l1-3 3 1z" fill="#484848"/>
<path transform="translate(571,367)" d="m0 0h1l1 6 3 1-1 2h-2l-1 4-3 1-1-3 1-6z" fill="#696969"/>
<path transform="translate(408,737)" d="m0 0 7 1 1 4-2 2-5-1v-2l-4-1z" fill="#4B4B4B"/>
<path transform="translate(728,724)" d="m0 0 6 2 10 5-1 3-2 1v-3h-4v-2l-6-2-3-2z" fill="#323232"/>
<path transform="translate(462,491)" d="m0 0 2 4-2 5h-3l-4-5-8-1v-2h8l5 4v2h2z" fill="#818181"/>
<path transform="translate(530,436)" d="m0 0 3 1-2 9-2 2-2-6v-5z" fill="#7D7D7D"/>
<path transform="translate(524,237)" d="m0 0 7 1 1 2-3 2v2h3l2 3-1 3-7-5-1-5z" fill="#1E1E1E"/>
<path transform="translate(338,756)" d="m0 0h3v4h2l1 8h-2v5l-2-4z" fill="#6A6A6A"/>
<path transform="translate(490,610)" d="m0 0 4 3 3 1 1 4-4 2-3-5h-4l1-4z" fill="#484848"/>
<path transform="translate(267,498)" d="m0 0 2 1v2h2v16l-2-2-2-10v-3z" fill="#4F4F4F"/>
<path transform="translate(243,330)" d="m0 0h3v7h2v7l-3-1v-5h-2z" fill="#8D8D8D"/>
<path transform="translate(279,258)" d="m0 0 1 4-2 1-2 5-5 3 1-5z" fill="#6D6D6D"/>
<path transform="translate(501,560)" d="m0 0 4 1v6l-5 2-2-6z" fill="#B0B0B0"/>
<path transform="translate(267,472)" d="m0 0h2l1 4v7l-3 2-1-1v-8z" fill="#606060"/>
<path transform="translate(439,437)" d="m0 0 5 2 3 3-5 2-3 1-1-7z" fill="#636363"/>
<path transform="translate(93,767)" d="m0 0 1 4-1 5-6-2-1-5 2-1v3l4-2z" fill="#626262"/>
<path transform="translate(410,595)" d="m0 0 1 4 4 1v3h-6l-4-1 1-3h2z" fill="#484848"/>
<path transform="translate(434,547)" d="m0 0h5l2 3 3 2h-7l-5 2 1-5z" fill="#484848"/>
<path transform="translate(426,512)" d="m0 0 4 2v4l-6 1-3 1-1-5h3l1-2 2 2z" fill="#484848"/>
<path transform="translate(595,450)" d="m0 0 4 2 12 12 1 3-4-2-1-3h-2v-2l-3-1-7-8z" fill="#757575"/>
<path transform="translate(337,403)" d="m0 0 1 3 2 1h-2l-2 5h-3l-1-4h2l-1-4z" fill="#494949"/>
<path transform="translate(574,350)" d="m0 0h1v5h-2v9l-1-2-4-1 2-7 3-1z" fill="#676767"/>
<path transform="translate(526,254)" d="m0 0 4 1 4 9 5 5-4-1-5-5-1-4-3-1z" fill="#666"/>
<path transform="translate(425,801)" d="m0 0h10l-2 3h-16v-1z" fill="#535353"/>
<path transform="translate(454,764)" d="m0 0 1 2 10 1 4 3-12-1-6-1z" fill="#494949"/>
<path transform="translate(444,536)" d="m0 0 6 1v2l4 1 2 2-1 3-7-4-1-2-3-1z" fill="#818181"/>
<path transform="translate(509,470)" d="m0 0 2 1v2l-14 6h-2l-1-3 11-3z" fill="#707070"/>
<path transform="translate(370,429)" d="m0 0 4 2 3 3-1 3-6 2 1-3z" fill="#5E5E5E"/>
<path transform="translate(324,412)" d="m0 0 6 1-1 3-6-1zm-2 3m-3 1 4 1v5l-4 1 1-4z" fill="#434343"/>
<path transform="translate(421,213)" d="m0 0 2 2 4 2h-3l1 4 3 1 1 6-2-1-1-3-3-1v-3h-2z" fill="#484848"/>
<path transform="translate(772,757)" d="m0 0 5 1v5l-5 3 1-4h-2z" fill="#606060"/>
<path transform="translate(296,529)" d="m0 0h1l2 6 3 2-1 5-3 2-1-7-2-5z" fill="#484848"/>
<path transform="translate(484,215)" d="m0 0h12l2 3h-12l-2-1z" fill="#ACACAC"/>
<path transform="translate(0,23)" d="m0 0 2 1v2h2l8 8-4 1-8-8z" fill="#828282"/>
<path transform="translate(511,594)" d="m0 0 4 2-2 5-1 4-3 2h-3v-2h3l2-9z" fill="#484848"/>
<path transform="translate(405,434)" d="m0 0 2 2v12l-3 3v-12z" fill="#353535"/>
<path transform="translate(323,220)" d="m0 0h5l3 2-2 5h-9v-1l8-2-5-1z" fill="#666"/>
<path transform="translate(53,47)" d="m0 0 1 3 4 2 5 6-1 2-11-10 1-2z" fill="#818181"/>
<path transform="translate(776,763)" d="m0 0 1 4-1 7-5-2v-3h3v-2l-3-1z" fill="#484848"/>
<path transform="translate(393,533)" d="m0 0 3 3v3h-7l-4 1v-2l7-4z" fill="#3C3C3C"/>
<path transform="translate(402,487)" d="m0 0h5l-1 5-5 1-3-2z" fill="#818181"/>
<path transform="translate(555,452)" d="m0 0 1 4v8l-3 1-1-7 1-5z" fill="#464646"/>
<path transform="translate(544,415)" d="m0 0h3l2 5-3 6h-2z" fill="#1F1F1F"/>
<path transform="translate(540,266)" d="m0 0 3 3-1 3-4 2v3l-1-2h-2v-4z" fill="#5C5C5C"/>
<path transform="translate(306,250)" d="m0 0 2 1-2 4v3l-6 1-1-2 2-1 1-4 3 1z" fill="#4F4F4F"/>
<path transform="translate(519,234)" d="m0 0h11l3 2v3h-7l-2-3-5-1z" fill="#666"/>
<path transform="translate(488,219)" d="m0 0 6 2 7 5v2l-5-2-8-5z" fill="#303030"/>
<path transform="translate(814,675)" d="m0 0 9 9-1 3-10-10z" fill="#767676"/>
<path transform="translate(443,652)" d="m0 0 1 3-4 1-2 4-1 1h-5l3-1 1-4z" fill="#484848"/>
<path transform="translate(329,474)" d="m0 0h11l-2 4-3-1-1 3-4-2z" fill="#676767"/>
<path transform="translate(550,440)" d="m0 0h7l3 3-5 3-2-1-1-3z" fill="#8A8A8A"/>
<path transform="translate(541,266)" d="m0 0 5 1v5l3 1v3h-3l-1 2-3-10z" fill="#2F2F2F"/>
<path transform="translate(522,244)" d="m0 0 7 2 1 6-6-2-2-2z" fill="#AEAEAE"/>
<path transform="translate(366,808)" d="m0 0 9 1 2 5-5-1-4-1z" fill="#828282"/>
<path transform="translate(443,731)" d="m0 0 1 3h-2l-1 7-4 1v-6h2l1-3h3z" fill="#484848"/>
<path transform="translate(329,654)" d="m0 0 2 1 5 13 1 4-4-3-3-8-1-1z" fill="#272727"/>
<path transform="translate(719,578)" d="m0 0 7 6 3 3v2l2 1h-3l-9-9z" fill="#797979"/>
<path transform="translate(460,411)" d="m0 0 2 4-3 1-2-1v4l-4-1 1-4z" fill="#484848"/>
<path transform="translate(496,389)" d="m0 0 3 1v4h-12l3-3 3 1z" fill="#464646"/>
<path transform="translate(494,225)" d="m0 0 5 2 5 7-5-1-5-6z" fill="#AEAEAE"/>
<path transform="translate(441,211)" d="m0 0 9 1-3 3-2 3h-3z" fill="#555"/>
<path transform="translate(480,963)" d="m0 0 2 1-1 14h-1l-2-12z" fill="#737373"/>
<path transform="translate(840,937)" d="m0 0h3l3 7-1 4-4-2 1-7h-2z" fill="#4A4A4A"/>
<path transform="translate(537,424)" d="m0 0 3 2v2l4 2-2 9-2-4z" fill="#646464"/>
<path transform="translate(534,412)" d="m0 0h8l2 2h-2v2l-8-1-2 1v-3z" fill="#767676"/>
<path transform="translate(516,392)" d="m0 0 5 2 2 6-1 4-3-3-2-7z" fill="#898989"/>
<path transform="translate(509,648)" d="m0 0h1v10l-3 8-2-1 3-10z" fill="#646464"/>
<path transform="translate(434,514)" d="m0 0h2l3 4-1 3-1 1-1 2-3-3 1-2-2-2h2z" fill="#484848"/>
<path transform="translate(387,421)" d="m0 0h3l-1 5-1 1h-6l-2-2 3-1h4z" fill="#646464"/>
<path transform="translate(368,401)" d="m0 0 2 1 2 4-7 1-2-2 3-1-5-1v-1z" fill="#484848"/>
<path transform="translate(366,399)" d="m0 0h8l5 1-1 3-8-1v-2z" fill="#6A6A6A"/>
<path transform="translate(496,682)" d="m0 0 1 2-4 8-2-4zm-8 8 3 1-3 2z" fill="#303030"/>
<path transform="translate(325,468)" d="m0 0h2v4l2 1 1 4-6-2-1-6z" fill="#7B7B7B"/>
<path transform="translate(556,356)" d="m0 0h6l2 4-4 1h-3z" fill="#3F3F3F"/>
<path transform="translate(559,270)" d="m0 0 6 4 2 4v3l-3-1-5-8z" fill="#535353"/>
<path transform="translate(391,826)" d="m0 0 7 6 5 6-4-2-4-3h-2z" fill="#818181"/>
<path transform="translate(507,726)" d="m0 0h1v17l-1 5-2-4 1-8z" fill="#757575"/>
<path transform="translate(551,507)" d="m0 0 1 3-3 6-2-1v-6z" fill="#666"/>
<path transform="translate(367,427)" d="m0 0 3 1 2 9-4 1 1-7-3-1z" fill="#7A7A7A"/>
<path transform="translate(310,425)" d="m0 0v3l-11 2-1-3z" fill="#B0B0B0"/>
<path transform="translate(539,420)" d="m0 0h1l1 5 5 2-1 3-5-2-3-3-1-2h2z" fill="#808080"/>
<path transform="translate(532,256)" d="m0 0h2l1 5 4 7-4-2-3-3-1-6z" fill="#B0B0B0"/>
<path transform="translate(551,254)" d="m0 0 3 1 3 7v5l-2-1-3-9-3-1z" fill="#B0B0B0"/>
<path transform="translate(429,595)" d="m0 0h6l1 3-9 2 1-4z" fill="#1D1D1D"/>
<path transform="translate(327,475)" d="m0 0 1 2 14 7-4 1-10-6-2-3z" fill="#B0B0B0"/>
<path transform="translate(394,409)" d="m0 0 4 1 4 6h5l-3 3-4-1v-3h-2z" fill="#1D1D1D"/>
<path transform="translate(569,386)" d="m0 0 1 4-1 8-3 2 1-10z" fill="#5A5A5A"/>
<path transform="translate(557,313)" d="m0 0h2v9l-4-1v-7z" fill="#626262"/>
<path transform="translate(565,296)" d="m0 0 1 2-3 4h-2v3l-4-1v-3l5-2z" fill="#868686"/>
<path transform="translate(567,274)" d="m0 0 5 2 5 4 1 6-4-5-7-6z" fill="#6D6D6D"/>
<path transform="translate(520,237)" d="m0 0h4l3 4-1 4 2 1-4-1 1-4-5-1z" fill="#5B5B5B"/>
<path transform="translate(353,196)" d="m0 0 3 1v3l4 2 3 4-4-1-7-7z" fill="#818181"/>
<path transform="translate(99,758)" d="m0 0 5 1 2 2h-2v2l-5 1-1-5z" fill="#7F7F7F"/>
<path transform="translate(766,627)" d="m0 0h2l7 8v2l-4-2-5-5z" fill="#747474"/>
<path transform="translate(588,440)" d="m0 0 5 5 2 4 2 1-4-1-7-7z" fill="#7C7C7C"/>
<path transform="translate(439,427)" d="m0 0 5 2-1 6-3 1z" fill="#B0B0B0"/>
<path transform="translate(552,340)" d="m0 0h2v2l-7 3h-5v-3l6 1v-2z" fill="#484848"/>
<path transform="translate(285,258)" d="m0 0 3 1-3 6h-4l1-4 3-1z" fill="#636363"/>
<path transform="translate(524,251)" d="m0 0 7 3-1 2-4-2v4l2 1-4-1-1-5z" fill="#3E3E3E"/>
<path transform="translate(358,214)" d="m0 0 2 1-3 4 3 1-3 2-4-1-1-2 4-1-3-1z" fill="#616161"/>
<path transform="translate(456,721)" d="m0 0 3 1-2 4-4 2-1-3 1-3z" fill="#4A4A4A"/>
<path transform="translate(325,632)" d="m0 0 2 4h3l-1 4h-4zm-2 8 2 1-2 1z" fill="#434343"/>
<path transform="translate(544,505)" d="m0 0 5 1-2 5-1 2h-2z" fill="#B0B0B0"/>
<path transform="translate(561,447)" d="m0 0h1v17l-3 3-1-4 2-1z" fill="#505050"/>
<path transform="translate(545,454)" d="m0 0 1 3-4 1 1 5v4h-2v-11z" fill="#7D7D7D"/>
<path transform="translate(368,445)" d="m0 0 1 3 2 2-7 1-4-1v-2l7-1z" fill="#3E3E3E"/>
<path transform="translate(276,440)" d="m0 0 4 2h-3v8l-3-3v-5z" fill="#868686"/>
<path transform="translate(547,265)" d="m0 0 3 1 2 9h-2l-1-3-2-1z" fill="#B0B0B0"/>
</svg>
